<svg xmlns="http://www.w3.org/2000/svg" class="thumb" viewBox="0 0 600 600" width="1000" height="1000" xmlns:xlink="http://www.w3.org/1999/xlink" xmlns:inkscape="http://www.inkscape.org/namespaces/inkscape" xmlns:sodipodi="http://sodipodi.sourceforge.net/DTD/sodipodi-0.dtd" xmlns:ns1="http://www.inkscape.org/namespaces/inkscape" xmlns:sketch="http://www.bohemiancoding.com/sketch/ns">
  <defs />
  <g transform="matrix(0.8633, 0, 0, 0.8633, -61.255, 181.051)">
    <g transform="matrix(2.941, 0, 0, 2.941, 189.79, 163.714)">
      <svg viewBox="-2.27674 14.859 57.5247 75.8" width="57.5247" height="75.8">
        <defs />
        <g />
        <g />
        <g />
        <g />
        <g />
        <g />
        <g />
        <g />
        <g />
        <g />
        <g />
        <g />
        <g />
        <g />
        <g />
        <g />
        <g />
        <g />
        <g />
        <g />
        <g />
        <g />
        <g />
        <g />
        <g />
        <g />
        <g />
        <g>
          <path display="none" fill="none" stroke="none" d="M 42.728 56.506 c -0.121 -0.646 -0.202 -1.074 -0.281 -1.34 c -0.114 -0.387 -0.381 -0.963 -0.75 -1.764 c -1.669 -3.617 -5.578 -12.086 -4.402 -23.895 c 0.13 -1.312 1.782 -5.51 7.776 -9.143 l -0.265 -0.505 c -1.965 0.886 -4.024 1.744 -6.203 2.652 c -8.759 3.652 -18.687 7.791 -24.577 14.868 c -4.745 5.7 -8.184 12.479 -9.945 19.606 c -1.511 6.111 -1.77 12.443 -0.731 17.828 c 1.028 5.332 4.49 10.846 8.502 10.846 c 0.303 0 0.609 -0.031 0.909 -0.094 l 0.343 -0.072 l -0.141 -0.322 c -1.073 -2.447 -1.822 -5.324 -2.096 -6.637 c -0.694 -3.33 -0.812 -10.422 -0.229 -13.797 c 1.14 -6.602 3.263 -9.941 12.826 -12.291 c 0.201 -0.049 0.425 -0.074 0.668 -0.074 c 2.5 0 6.551 2.658 8.063 4.451 c 1.831 2.172 3.133 8.24 3.423 11.008 c 0.754 7.184 2.83 11.547 2.851 11.592 l 0.121 0.248 l 0.253 -0.113 c 0.034 -0.014 3.356 -1.506 4.776 -1.506 c 0.077 0 0.146 0.006 0.206 0.016 c 0.4 0.063 0.96 0.531 1.455 0.945 c 0.21 0.176 0.429 0.359 0.638 0.514 l 0.08 0.061 l 0.1 -0.004 c 0.86 -0.027 2.043 -0.344 3.188 -0.648 c 0.213 -0.059 0.424 -0.113 0.629 -0.168 l 0.333 -0.086 L 50.1 78.369 C 44.692 66.986 43.316 59.643 42.728 56.506 Z M 46.089 79.299 c -0.726 -0.539 -1.556 -1.408 -2.219 -1.514 c -1.324 -0.207 -5.144 1.514 -5.144 1.514 s -2.066 -4.279 -2.823 -11.496 c -0.305 -2.9 -1.608 -8.934 -3.489 -11.162 c -1.695 -2.01 -6.463 -5.098 -9.017 -4.471 c -9.426 2.316 -11.834 5.547 -13.039 12.52 c -0.588 3.404 -0.474 10.521 0.231 13.904 c 0.31 1.482 1.082 4.336 2.114 6.693 c -4.247 0.887 -8.018 -5.061 -9.072 -10.525 c -1.925 -9.979 0.326 -24.839 10.614 -37.199 c 7.265 -8.728 20.596 -12.902 30.679 -17.442 c -6.181 3.747 -7.784 8.072 -7.913 9.359 c -1.429 14.359 4.532 23.644 5.162 25.767 c 0.443 1.494 1.141 9.506 7.668 23.246 C 48.575 78.822 47.076 79.268 46.089 79.299 Z" />
        </g>
      </svg>
    </g>
    <g transform="matrix(2.941, 0, 0, 2.941, 331.143, 133.83)">
      <svg viewBox="45.705 4.747 52.337 62.923" width="52.337" height="62.923">
        <defs />
        <g />
        <g />
        <g />
        <g />
        <g />
        <g />
        <g />
        <g />
        <g />
        <g />
        <g />
        <g />
        <g />
        <g />
        <g />
        <g />
        <g />
        <g />
        <g />
        <g />
        <g />
        <g />
        <g />
        <g />
        <g />
        <g />
        <g />
        <g>
          <path display="none" fill="none" stroke="none" d="M 91.746 36.77 c -0.146 -0.562 -0.623 -1.327 -1.176 -2.213 c -0.815 -1.31 -1.825 -2.933 -1.802 -4.082 c 0.145 -0.214 0.306 -0.294 0.491 -0.385 c 0.171 -0.085 0.366 -0.181 0.522 -0.385 l 0.273 -0.355 l -0.438 -0.097 c -0.135 -0.03 -0.407 -0.141 -0.67 -0.249 c -0.577 -0.235 -1.182 -0.472 -1.505 -0.42 c -0.425 0.066 -0.582 0.531 -0.733 0.979 c -0.128 0.378 -0.273 0.808 -0.534 0.882 c -0.047 0.013 -0.095 0.019 -0.144 0.019 c -1.188 0 -2.837 -3.612 -2.869 -5.265 c -0.021 -1.018 0.434 -2.342 0.735 -3.218 l 0.147 -0.438 l -0.104 -0.123 C 77.289 13.565 70.919 9.747 64.466 9.747 c -4.466 0 -9.016 1.917 -13.522 5.698 l -0.239 0.201 l 0.222 0.22 c 0.548 0.542 0.464 4.419 0.403 7.248 c -0.041 1.881 -0.079 3.658 0.018 4.777 c 0.158 1.826 0.919 4.61 1.358 6.106 c 0.027 0.093 2.806 9.323 4.123 10.088 l 0.455 0.265 l -0.027 -0.527 c -0.147 -2.787 0.046 -6.122 0.923 -8.17 c -0.531 3.776 -0.976 10.612 1.569 15.835 c 2.949 6.053 6.318 6.883 9.025 7.551 c 0.845 0.207 1.643 0.404 2.368 0.734 c 0.208 0.191 0.409 0.389 0.621 0.598 c 1.096 1.078 2.336 2.299 4.713 2.299 c 0.235 0 0.482 -0.012 0.734 -0.037 c 2.66 -0.25 3.555 -1.715 4.421 -3.131 c 0.055 -0.09 0.108 -0.18 0.164 -0.268 c 0.328 -0.207 0.761 -0.449 1.256 -0.729 c 2.738 -1.543 7.839 -4.416 9.675 -9.273 C 93.471 47.265 92.799 40.805 91.746 36.77 Z M 81.587 59.027 c -0.918 1.479 -1.687 3.066 -4.402 3.322 c -3.234 0.305 -4.41 -1.479 -5.885 -2.816 c -3.16 -1.467 -7.489 -0.359 -11.294 -8.17 c -2.854 -5.855 -1.892 -13.854 -1.318 -17.09 c -1.69 1.895 -1.869 6.661 -1.715 9.565 c -1.077 -0.625 -3.608 -8.612 -3.993 -9.921 c -0.487 -1.66 -1.198 -4.328 -1.348 -6.051 c -0.264 -3.041 0.492 -11.216 -0.505 -12.202 c 11.002 -9.23 21.62 -7.02 32.598 5.942 c -0.29 0.858 -0.871 2.411 -0.847 3.6 c 0.034 1.758 1.858 5.94 3.375 5.514 c 0.76 -0.214 0.688 -1.768 1.235 -1.854 c 0.415 -0.064 1.64 0.571 2.067 0.666 c -0.272 0.355 -0.727 0.284 -1.069 0.855 c -0.119 1.997 2.625 5.078 2.984 6.455 c 1.057 4.05 1.691 10.433 0.989 12.292 C 90.321 54.789 83.746 57.654 81.587 59.027 Z" />
        </g>
      </svg>
    </g>
    <g transform="matrix(2.941, 0, 0, 2.941, 332.613, 133.83)">
      <svg viewBox="46.127 5.03229 51.6288 62.3512" width="51.6288" height="62.3512">
        <defs>
          <linearGradient id="linearGradientSk2x61r3ra" x1="0" y1="0.5" x2="1" y2="0.5">
            <stop stop-color="rgb(0, 0, 0)" offset="0%" />
            <stop stop-color="rgb(0, 0, 0)" offset="100%" />
          </linearGradient>
        </defs>
        <g />
        <g />
        <g />
        <g />
        <g />
        <g />
        <g />
        <g />
        <g />
        <g />
        <g />
        <g />
        <g />
        <g />
        <g />
        <g />
        <g />
        <g />
        <g />
        <g />
        <g />
        <g />
        <g />
        <g />
        <g />
        <g />
        <g />
        <g>
          <path display="none" style="" fill="url(#linearGradientSk2x61r3ra)" stroke="none" d="M 91.471 36.841 c -0.359 -1.377 -3.104 -4.458 -2.984 -6.455 c 0.343 -0.572 0.797 -0.5 1.069 -0.855 c -0.428 -0.095 -1.652 -0.73 -2.067 -0.666 c -0.548 0.086 -0.476 1.64 -1.235 1.854 c -1.517 0.426 -3.341 -3.755 -3.375 -5.514 c -0.024 -1.189 0.557 -2.742 0.847 -3.6 C 72.747 8.644 62.129 6.433 51.127 15.664 c 0.997 0.986 0.241 9.161 0.505 12.202 c 0.149 1.723 0.86 4.391 1.348 6.051 c 0.385 1.31 2.916 9.297 3.993 9.921 c -0.154 -2.905 0.024 -7.67 1.715 -9.565 c -0.573 3.236 -1.535 11.235 1.318 17.09 c 3.805 7.811 8.134 6.703 11.294 8.17 c 1.475 1.338 2.65 3.121 5.885 2.816 c 2.716 -0.256 3.484 -1.844 4.402 -3.322 c 2.159 -1.373 8.734 -4.238 10.873 -9.895 C 93.162 47.274 92.527 40.891 91.471 36.841 Z" />
        </g>
      </svg>
    </g>
    <g transform="matrix(2.941, 0, 0, 2.941, 191.261, 163.714)">
      <svg viewBox="-1.993 15.12 56.835 75.2555" width="56.835" height="75.2555">
        <defs>
          <linearGradient id="linearGradientSk2x61r3rg" x1="0" y1="0.5" x2="1" y2="0.5">
            <stop stop-color="rgb(0, 0, 0)" offset="0%" />
            <stop stop-color="rgb(0, 0, 0)" offset="100%" />
          </linearGradient>
        </defs>
        <g />
        <g />
        <g />
        <g />
        <g />
        <g />
        <g />
        <g />
        <g />
        <g />
        <g />
        <g />
        <g />
        <g />
        <g />
        <g />
        <g />
        <g />
        <g />
        <g />
        <g />
        <g />
        <g />
        <g />
        <g />
        <g />
        <g />
        <g>
          <path display="none" style="" fill="url(#linearGradientSk2x61r3rg)" stroke="none" d="M 37.012 29.479 c 0.129 -1.288 1.732 -5.612 7.913 -9.359 c -10.083 4.54 -23.414 8.714 -30.679 17.442 C 3.958 49.922 1.707 64.783 3.631 74.762 c 1.054 5.465 4.826 11.412 9.072 10.525 c -1.032 -2.357 -1.805 -5.211 -2.114 -6.693 c -0.705 -3.383 -0.819 -10.5 -0.231 -13.904 c 1.205 -6.973 3.613 -10.203 13.039 -12.52 c 2.553 -0.627 7.321 2.461 9.017 4.471 c 1.88 2.229 3.184 8.262 3.489 11.162 c 0.757 7.217 2.823 11.496 2.823 11.496 s 3.82 -1.721 5.144 -1.514 c 0.663 0.105 1.494 0.975 2.219 1.514 c 0.987 -0.031 2.486 -0.477 3.753 -0.807 c -6.528 -13.74 -7.225 -21.752 -7.668 -23.246 C 41.544 53.123 35.583 43.838 37.012 29.479 Z" />
        </g>
      </svg>
    </g>
    <g transform="matrix(1.0551, 0, 0, 1.8934, 156.69, 71.1989)">
      <svg viewBox="-3.28094 1.5163 106.562 60.4677" width="106.562" height="60.4677">
        <defs>
          <linearGradient id="linearGradientSk2x61r3rm" x1="0" y1="0.5" x2="1" y2="0.5">
            <stop stop-color="rgb(207, 23, 23)" offset="0%" />
            <stop stop-color="rgb(207, 23, 23)" offset="100%" />
          </linearGradient>
        </defs>
        <g />
        <g />
        <g />
        <g />
        <g />
        <g />
        <g />
        <g />
        <g />
        <g />
        <g />
        <g />
        <g />
        <g />
        <g />
        <g />
        <g />
        <g />
        <g />
        <g />
        <g />
        <g />
        <g />
        <g />
        <g />
        <g>
          <path style="" fill="url(#linearGradientSk2x61r3rm)" stroke="none" d="M 93.28 56.984 c -1.277 0 -2.556 -0.486 -3.531 -1.46 L 50.874 16.745 c -0.325 -0.324 -0.861 -0.327 -1.192 -0.001 L 10.224 55.521 c -1.97 1.935 -5.135 1.907 -7.071 -0.062 c -1.936 -1.97 -1.908 -5.136 0.062 -7.071 l 39.46 -38.779 c 4.226 -4.145 11.068 -4.12 15.259 0.054 l 38.878 38.782 c 1.955 1.95 1.959 5.116 0.009 7.071 C 95.844 56.494 94.562 56.984 93.28 56.984 Z" />
        </g>
      </svg>
    </g>
    <g transform="matrix(0.1163, 0.0876, -0.0876, 0.1163, 710.547, 70.5592)">
      <svg viewBox="-4.822 -2 186.386 177.755" width="186.386" height="177.755">
        <defs>
          <linearGradient id="linearGradientSk2x61r3rs" x1="0" y1="0.5" x2="1" y2="0.5">
            <stop stop-color="rgb(255, 255, 255)" offset="0%" />
            <stop stop-color="rgb(255, 255, 255)" offset="100%" />
          </linearGradient>
        </defs>
        <g />
        <g />
        <g />
        <g />
        <g />
        <g />
        <g />
        <g />
        <g />
        <g />
        <g>
          <polygon style="" fill="url(#linearGradientSk2x61r3rs)" stroke="none" points="88.371,3 115.625,58.222 176.564,67.077 132.468,110.062 142.878,170.755 88.371,142.099 33.864,170.755 44.274,110.062 0.178,67.077 61.117,58.222" />
        </g>
      </svg>
    </g>
    <g transform="matrix(0.1235, -0.0772, 0.0772, 0.1235, 601.294, 86.2477)">
      <svg viewBox="-4.822 -2 186.386 177.755" width="186.386" height="177.755">
        <defs>
          <linearGradient id="linearGradientSk2x61r3ry" x1="0" y1="0.5" x2="1" y2="0.5">
            <stop stop-color="rgb(255, 255, 255)" offset="0%" />
            <stop stop-color="rgb(255, 255, 255)" offset="100%" />
          </linearGradient>
        </defs>
        <g />
        <g />
        <g />
        <g />
        <g />
        <g />
        <g />
        <g />
        <g />
        <g />
        <g>
          <polygon style="" fill="url(#linearGradientSk2x61r3ry)" stroke="none" points="88.371,3 115.625,58.222 176.564,67.077 132.468,110.062 142.878,170.755 88.371,142.099 33.864,170.755 44.274,110.062 0.178,67.077 61.117,58.222" />
        </g>
      </svg>
    </g>
    <g transform="matrix(0.5938, 0, 0, 0.5938, 496.948, 164.342)">
      <svg viewBox="-5 -5 110 110" width="110" height="110">
        <defs />
        <g />
        <g />
        <g />
        <g />
        <g />
        <g />
        <g />
        <g>
          <rect fill="none" stroke="none" width="100" height="100" />
        </g>
      </svg>
    </g>
    <g transform="matrix(0.5938, 0, 0, 0.5938, 496.948, 164.342)">
      <svg viewBox="-5 -5 110 110" width="110" height="110">
        <defs />
        <g />
        <g />
        <g />
        <g />
        <g />
        <g />
        <g />
        <g>
          <rect fill="none" stroke="none" width="100" height="100" />
        </g>
      </svg>
    </g>
    <g transform="matrix(4.6346, 0.3241, -0.3241, 4.6346, 98.9734, 0.6096)">
      <svg viewBox="-0.781 -3.117 49.409 55.74" width="49.409" height="55.74">
        <defs>
          <linearGradient id="linearGradientSk2x61r3r1a" x1="0" y1="0.5" x2="1" y2="0.5">
            <stop stop-color="rgb(207, 23, 23)" offset="0%" />
            <stop stop-color="rgb(207, 23, 23)" offset="100%" />
          </linearGradient>
        </defs>
        <g />
        <g />
        <g />
        <g />
        <g />
        <g />
        <g>
          <path style="" fill="url(#linearGradientSk2x61r3r1a)" stroke="none" d="M 27.086 44.807 c -11.057 0 -20.051 -8.997 -20.051 -20.054 S 16.029 4.699 27.086 4.699 c 5.182 0 10.095 1.972 13.84 5.556 l 1.947 -2.038 C 38.6 4.132 32.995 1.883 27.086 1.883 c -12.611 0 -22.867 10.261 -22.867 22.87 c 0 12.611 10.26 22.87 22.867 22.87 c 6.317 0 12.196 -2.515 16.542 -7.083 l -2.045 -1.941 C 37.774 42.602 32.625 44.807 27.086 44.807 Z" />
        </g>
      </svg>
    </g>
    <g transform="matrix(4.6886, 0.3279, -0.3279, 4.6886, 116.032, 22.4406)">
      <svg viewBox="3.867 1.402 41.62 46.702" width="41.62" height="46.702">
        <defs>
          <linearGradient id="linearGradientSk2x61r3r1g" x1="0" y1="0.5" x2="1" y2="0.5">
            <stop stop-color="rgb(207, 23, 23)" offset="0%" />
            <stop stop-color="rgb(207, 23, 23)" offset="100%" />
          </linearGradient>
        </defs>
        <g />
        <g />
        <g />
        <g />
        <g />
        <g />
        <g>
          <path style="" fill="url(#linearGradientSk2x61r3r1g)" stroke="none" d="M 27.218 9.221 c 4.01 0 7.817 1.527 10.723 4.299 l 1.945 -2.035 c -3.432 -3.279 -7.929 -5.083 -12.668 -5.083 c -10.116 0 -18.351 8.232 -18.351 18.351 c 0 10.116 8.23 18.351 18.351 18.351 c 5.066 0 9.784 -2.019 13.269 -5.684 l -2.041 -1.94 c -2.948 3.1 -6.937 4.808 -11.228 4.808 c -8.565 0 -15.534 -6.969 -15.534 -15.534 S 18.653 9.221 27.218 9.221 Z" />
        </g>
      </svg>
    </g>
    <g transform="matrix(0.8005, 0, 0, 0.8005, 196.198, 129.59)">
      <svg viewBox="30.634 -2 41.334 41.334" width="41.334" height="41.334">
        <defs>
          <linearGradient id="linearGradientSk2x61r3r1m" x1="0" y1="0.5" x2="1" y2="0.5">
            <stop stop-color="rgb(207, 23, 23)" offset="0%" />
            <stop stop-color="rgb(207, 23, 23)" offset="100%" />
          </linearGradient>
        </defs>
        <g />
        <g />
        <g />
        <g />
        <g />
        <g>
          <path style="" clip-rule="evenodd" fill="url(#linearGradientSk2x61r3r1m)" fill-rule="evenodd" stroke="none" d="M 51.301 3 c 8.651 0 15.667 7.013 15.667 15.667 c 0 8.652 -7.016 15.667 -15.667 15.667 c -8.653 0 -15.667 -7.015 -15.667 -15.667 C 35.634 10.013 42.647 3 51.301 3 Z" />
        </g>
      </svg>
    </g>
    <g transform="matrix(0.8956, 0, 0, 0.6508, 267.282, 111.081)">
      <svg style="overflow: visible;" width="275.5" height="177">
        <defs>
          <linearGradient id="linearGradientSk2x61r3r1u" x1="0" y1="0.5" x2="1" y2="0.5">
            <stop stop-color="rgb(207, 23, 23)" offset="0%" />
            <stop stop-color="rgb(207, 23, 23)" offset="100%" />
          </linearGradient>
        </defs>
        <g transform="matrix(1, 0, 0, 1, 0, 87.75)">
          <path fill="url(#linearGradientSk2x61r3r1u)" transform="translate(0)" d="M 28.9 1.5 Q 18.9 1.5 13.45 -3.65 Q 8 -8.8 8 -18.3 L 8 -18.3 L 8 -49.9 L 15.2 -49.9 L 15.2 -19.9 Q 15.2 -12.3 18.5 -8.75 Q 21.8 -5.2 28.9 -5.2 L 28.9 -5.2 Q 35.9 -5.2 39.25 -8.75 Q 42.6 -12.3 42.6 -19.9 L 42.6 -19.9 L 42.6 -49.9 L 49.8 -49.9 L 49.8 -18.3 Q 49.8 -8.8 44.35 -3.65 Q 38.9 1.5 28.9 1.5 L 28.9 1.5 Z M 99.5 -71 L 106.7 -71 L 106.7 -8.6 Q 106.7 -3.5 100.25 -1 Q 93.8 1.5 86.2 1.5 L 86.2 1.5 Q 77 1.5 70.2 -4.45 Q 63.4 -10.4 63.3 -25.6 L 63.3 -25.6 Q 63.3 -37.4 69.05 -44.05 Q 74.8 -50.7 86.1 -50.7 L 86.1 -50.7 Q 88.7 -50.7 92.55 -49.85 Q 96.4 -49 99.5 -47.8 L 99.5 -47.8 L 99.5 -71 Z M 99.5 -9.3 L 99.5 -40.6 Q 96.5 -42.3 92.95 -43.2 Q 89.4 -44.1 86.1 -44.1 L 86.1 -44.1 Q 78.3 -44.1 74.6 -39.15 Q 70.9 -34.2 70.9 -25.6 L 70.9 -25.6 Q 70.9 -16.2 74.3 -10.65 Q 77.7 -5.1 86.6 -5.1 L 86.6 -5.1 Q 91.9 -5.1 95.7 -6.3 Q 99.5 -7.5 99.5 -9.3 L 99.5 -9.3 Z M 144 -50.8 Q 152.4 -50.8 157.25 -46.7 Q 162.1 -42.6 162.1 -34.8 L 162.1 -34.8 L 162.1 -10.6 Q 162.1 -3.4 156.2 -0.95 Q 150.3 1.5 139.9 1.5 L 139.9 1.5 Q 132 1.5 126.35 -2 Q 120.7 -5.5 120.7 -13.7 L 120.7 -13.7 Q 120.7 -22.6 125.6 -26.65 Q 130.5 -30.7 139.1 -30.7 L 139.1 -30.7 Q 148.8 -30.7 154.8 -27.2 L 154.8 -27.2 L 154.8 -33.1 Q 154.8 -44.3 141.7 -44.3 L 141.7 -44.3 Q 137.4 -44.3 133 -43.1 Q 128.6 -41.9 125.6 -39.5 L 125.6 -39.5 L 125.6 -46.7 Q 128.6 -48.6 133.75 -49.7 Q 138.9 -50.8 144 -50.8 L 144 -50.8 Z M 141.6 -4.9 Q 148.6 -4.9 151.7 -5.95 Q 154.8 -7 154.8 -10.2 L 154.8 -10.2 L 154.8 -21.4 Q 152.1 -22.7 148.5 -23.45 Q 144.9 -24.2 141 -24.2 L 141 -24.2 Q 134.7 -24.2 131.3 -21.8 Q 127.9 -19.4 127.9 -14.8 L 127.9 -14.8 Q 127.9 -9.6 131.9 -7.25 Q 135.9 -4.9 141.6 -4.9 L 141.6 -4.9 Z M 219.8 0 L 210.6 0 L 196.4 -19.5 L 181.7 0 L 173.6 0 L 192.2 -25.1 L 174.1 -49.9 L 183.2 -49.9 L 197.1 -31 L 211.3 -49.9 L 219.6 -49.9 L 201.3 -25.2 L 219.8 0 Z M 248.2 -50.8 Q 259.6 -50.8 264.9 -43.4 Q 270.2 -36 270 -23.7 L 270 -23.7 L 233.6 -23.7 Q 233.6 -14.7 237.8 -9.9 Q 242 -5.1 249.8 -5.1 L 249.8 -5.1 Q 259.8 -5.1 266.9 -9.4 L 266.9 -9.4 L 266.9 -2 Q 259.6 1.5 249.4 1.5 L 249.4 1.5 Q 238.5 1.5 232.4 -5.25 Q 226.3 -12 226.3 -25 L 226.3 -25 Q 226.3 -37.7 232.05 -44.25 Q 237.8 -50.8 248.2 -50.8 L 248.2 -50.8 Z M 248.2 -44.2 Q 241.6 -44.2 238.2 -41.15 Q 234.8 -38.1 233.9 -30.3 L 233.9 -30.3 L 262.4 -30.3 Q 261.9 -37.3 258.45 -40.75 Q 255 -44.2 248.2 -44.2 L 248.2 -44.2 Z" data-href="" data-textpath="udaxe" data-text-anchor="middle" data-font-size="100" data-letterspacing="0" data-side="left" data-offset="0.5" data-dx="0" data-dy="0" data-xmlspace="preserve" data-font="Maven Pro" data-font-src="/Content/clientfonts/mavenpro.woff" data-font-scale="contain" data-x="0" data-y="0" />
        </g>
      </svg>
    </g>
  </g>
</svg>